<svg width="512" height="512" viewBox="0 0 512 512" fill="none" xmlns="http://www.w3.org/2000/svg">
<path fill-rule="evenodd" clip-rule="evenodd" d="M416 192.266C416 222.902 407.389 251.528 392.456 275.854L279.043 474.512C269.072 491.977 243.898 491.995 233.902 474.544L124.174 282.967C106.404 257.189 96 225.942 96 192.266C96 103.9 167.634 32.2656 256 32.2656C344.366 32.2656 416 103.9 416 192.266ZM256 270C299.078 270 334 235.078 334 192C334 148.922 299.078 114 256 114C212.922 114 178 148.922 178 192C178 235.078 212.922 270 256 270ZM262.821 138.948L262.822 138.948L262.822 138.948C263.547 139.079 264.251 139.207 264.959 139.306C268.637 139.818 272.193 140.789 275.639 142.155C279.458 143.669 283.135 145.487 286.46 147.915C288.015 149.05 289.493 150.291 290.972 151.532L290.973 151.533L290.973 151.533C291.53 152 292.087 152.467 292.647 152.929C293.096 153.298 293.528 153.688 293.975 154.09L293.975 154.091L293.976 154.091L293.979 154.094L293.979 154.094C294.187 154.281 294.398 154.471 294.615 154.664C294.706 154.578 294.793 154.495 294.879 154.415C295.056 154.25 295.222 154.093 295.384 153.932C296.088 153.227 296.793 152.522 297.497 151.818L297.508 151.807C299.633 149.684 301.757 147.561 303.862 145.418C304.655 144.611 305.601 144.55 306.503 144.886C307.43 145.23 308.002 145.962 308 147.099C307.984 154.819 307.985 162.539 307.986 170.259V170.269C307.986 173.111 307.986 175.954 307.986 178.796C307.986 180.685 306.963 181.564 305.267 181.57C294.831 181.606 284.394 181.599 273.958 181.572C272.81 181.569 271.724 181.245 271.351 179.919C271.044 178.828 271.366 177.968 272.182 177.165C274.394 174.992 276.581 172.794 278.838 170.526L278.839 170.525L278.851 170.512C279.707 169.653 280.573 168.783 281.453 167.901C280.975 167.49 280.506 167.076 280.039 166.663L280.038 166.663C279.009 165.755 277.991 164.857 276.921 164.027C273.95 161.726 270.637 160.014 267.058 158.907C265.041 158.284 262.947 157.792 260.853 157.567C258.358 157.299 255.814 157.195 253.313 157.356C249.811 157.583 246.417 158.5 243.173 159.86C239.768 161.288 236.622 163.21 233.859 165.642C230.975 168.179 228.364 171.017 226.51 174.433C225.503 176.288 224.609 178.21 223.754 180.141C223.225 181.338 222.344 181.795 221.129 181.796C218.647 181.797 216.166 181.797 213.685 181.797H213.608C211.453 181.797 209.299 181.797 207.144 181.798C205.2 181.799 204.217 180.357 204.707 178.542C205.757 174.651 207.148 170.869 209.046 167.31C211.073 163.51 213.504 159.984 216.35 156.724C219.304 153.34 222.637 150.411 226.304 147.875C229.955 145.351 233.869 143.251 238.091 141.857C241.078 140.871 244.14 140.104 247.196 139.35C247.939 139.166 248.706 139.081 249.482 138.994C250.041 138.931 250.605 138.868 251.168 138.767C254.543 138.686 257.888 138.686 261.33 138.686C261.841 138.769 262.336 138.859 262.821 138.948ZM248.901 245.653L248.9 245.653L248.9 245.653L248.899 245.652C247.851 245.448 246.845 245.253 245.857 244.99C245.065 244.78 244.271 244.577 243.476 244.374C241.088 243.764 238.698 243.154 236.382 242.336C232.513 240.97 228.873 239.042 225.551 236.609C223.991 235.467 222.505 234.224 221.019 232.981L221.018 232.979C220.467 232.518 219.915 232.057 219.36 231.601C218.911 231.232 218.479 230.842 218.031 230.438L218.029 230.437C217.819 230.248 217.606 230.055 217.386 229.861C217.299 229.943 217.214 230.022 217.131 230.099L217.129 230.101L217.128 230.102L217.128 230.102C216.953 230.265 216.786 230.42 216.624 230.582C215.886 231.321 215.145 232.058 214.404 232.795L214.401 232.799L214.401 232.799L214.4 232.799C212.353 234.837 210.306 236.875 208.299 238.953C207.452 239.83 206.519 239.945 205.497 239.659C204.532 239.389 204.013 238.417 204.013 237.226C204.013 234.583 204.013 231.941 204.014 229.298V229.289C204.016 221.474 204.018 213.658 204.001 205.843C203.997 204.147 204.855 202.937 206.928 202.936C212.082 202.934 217.237 202.934 222.391 202.934C227.534 202.934 232.677 202.934 237.819 202.932C240.466 202.932 241.195 204.768 240.539 206.371C240.417 206.671 240.188 206.946 239.955 207.18C237.505 209.64 235.049 212.095 232.486 214.656L230.514 216.627C231.008 217.041 231.495 217.453 231.978 217.862L231.979 217.863L231.981 217.864L231.982 217.865L231.983 217.866C233.046 218.766 234.094 219.652 235.163 220.511C238.079 222.855 241.391 224.492 244.932 225.604C246.945 226.236 249.039 226.723 251.132 226.955C253.559 227.223 256.035 227.322 258.47 227.168C262.179 226.934 265.758 225.98 269.183 224.49C274.001 222.394 278.134 219.338 281.614 215.426C284.437 212.254 286.667 208.684 288.15 204.679C288.669 203.275 289.38 202.728 290.862 202.727C293.211 202.724 295.56 202.724 297.909 202.725C300.222 202.725 302.534 202.726 304.847 202.723C306.787 202.721 307.786 204.154 307.297 205.971C305.636 212.151 303.103 217.977 299.322 223.133C297.059 226.22 294.476 229.12 291.737 231.795C288.491 234.964 284.727 237.503 280.697 239.647C276.919 241.658 272.975 243.209 268.857 244.285C267.364 244.675 265.828 244.898 264.292 245.122L264.291 245.122C263.649 245.215 263.008 245.309 262.369 245.414C262.182 245.445 261.995 245.473 261.806 245.5L261.806 245.501L261.806 245.501C261.351 245.567 260.891 245.635 260.416 245.753C256.9 245.836 253.416 245.836 249.834 245.836C249.519 245.773 249.209 245.713 248.902 245.653L248.901 245.653Z" fill="black"/>
</svg>
